HIERARCHY
ROOT Hips
{
	OFFSET 0.000000 0.000000 0.000000
	CHANNELS 6 Xposition Yposition Zposition Xrotation Yrotation Zrotation
	JOINT LeftUpLeg_virtual
	{
		OFFSET 0.000000 0.000000 0.000000
		CHANNELS 3 Xrotation Yrotation Zrotation
		JOINT LeftUpLeg
		{
			OFFSET 15.427100 -6.655098 0.678600
			CHANNELS 3 Xrotation Yrotation Zrotation
			JOINT LeftLeg
			{
				OFFSET 4.081073 -39.591068 13.024000
				CHANNELS 3 Xrotation Yrotation Zrotation
				JOINT LeftFoot
				{
					OFFSET -4.081074 -37.707932 -15.979700
					CHANNELS 3 Xrotation Yrotation Zrotation
					JOINT LeftToeBase
					{
						OFFSET 5.346399 -15.068900 20.645000
						CHANNELS 3 Xrotation Yrotation Zrotation
						JOINT LeftToe_End
						{
							OFFSET 2.754700 0.931300 11.300900
							CHANNELS 3 Xrotation Yrotation Zrotation
							End Site
							{
								OFFSET 0 0 0
							}
						}
					}
				}
			}
		}
	}
	JOINT RightUpLeg_virtual
	{
		OFFSET 0.000000 0.000000 0.000000
		CHANNELS 3 Xrotation Yrotation Zrotation
		JOINT RightUpLeg
		{
			OFFSET -15.569500 -6.655098 0.678600
			CHANNELS 3 Xrotation Yrotation Zrotation
			JOINT RightLeg
			{
				OFFSET -4.081825 -39.591045 13.023800
				CHANNELS 3 Xrotation Yrotation Zrotation
				JOINT RightFoot
				{
					OFFSET 4.081824 -37.707954 -15.979600
					CHANNELS 3 Xrotation Yrotation Zrotation
					JOINT RightToeBase
					{
						OFFSET -5.346400 -15.068900 20.645000
						CHANNELS 3 Xrotation Yrotation Zrotation
						JOINT RightToe_End
						{
							OFFSET -2.754700 0.931300 11.300900
							CHANNELS 3 Xrotation Yrotation Zrotation
							End Site
							{
								OFFSET 0 0 0
							}
						}
					}
				}
			}
		}
	}
	JOINT Spine_virtual
	{
		OFFSET 0.000000 0.000000 0.000000
		CHANNELS 3 Xrotation Yrotation Zrotation
		JOINT Spine
		{
			OFFSET -0.279200 12.230698 -2.892100
			CHANNELS 3 Xrotation Yrotation Zrotation
			JOINT Spine1
			{
				OFFSET -0.232667 10.192268 -1.242267
				CHANNELS 3 Xrotation Yrotation Zrotation
				JOINT Spine1_split
				{
					OFFSET -0.232667 10.192268 -1.242267
					CHANNELS 3 Xrotation Yrotation Zrotation
					JOINT Spine2
					{
						OFFSET -0.232667 10.192268 -1.242267
						CHANNELS 3 Xrotation Yrotation Zrotation
						JOINT Neck_virtual
						{
							OFFSET 0.000000 0.000000 0.000000
							CHANNELS 3 Xrotation Yrotation Zrotation
							JOINT Neck
							{
								OFFSET -0.418800 17.814194 8.416900
								CHANNELS 3 Xrotation Yrotation Zrotation
								JOINT Head
								{
									OFFSET 0.000000 7.031097 3.806800
									CHANNELS 3 Xrotation Yrotation Zrotation
									JOINT HeadTop_End
									{
										OFFSET 0.000000 24.646606 12.978600
										CHANNELS 3 Xrotation Yrotation Zrotation
										End Site
										{
											OFFSET 0 0 0
										}
									}
								}
							}
						}
						JOINT LeftShoulder_virtual
						{
							OFFSET 0.000000 0.000000 0.000000
							CHANNELS 3 Xrotation Yrotation Zrotation
							JOINT LeftShoulder
							{
								OFFSET 8.476499 7.247704 -3.868750
								CHANNELS 3 Xrotation Yrotation Zrotation
								JOINT LeftShoulder_split
								{
									OFFSET 8.476499 7.247704 -3.868750
									CHANNELS 3 Xrotation Yrotation Zrotation
									JOINT LeftArm
									{
										OFFSET 9.308998 -2.777710 0.208600
										CHANNELS 3 Xrotation Yrotation Zrotation
										JOINT LeftForeArm
										{
											OFFSET 29.972298 0.000000 0.000000
											CHANNELS 3 Xrotation Yrotation Zrotation
											JOINT LeftHand
											{
												OFFSET 26.026505 0.000000 0.000000
												CHANNELS 3 Xrotation Yrotation Zrotation
												End Site
												{
													OFFSET 0 0 0
												}
											}
										}
									}
								}
							}
						}
						JOINT RightShoulder_virtual
						{
							OFFSET 0.000000 0.000000 0.000000
							CHANNELS 3 Xrotation Yrotation Zrotation
							JOINT RightShoulder
							{
								OFFSET -7.570500 7.247704 -3.868750
								CHANNELS 3 Xrotation Yrotation Zrotation
								JOINT RightShoulder_split
								{
									OFFSET -7.570500 7.247704 -3.868750
									CHANNELS 3 Xrotation Yrotation Zrotation
									JOINT RightArm
									{
										OFFSET -9.308998 -2.777710 0.208500
										CHANNELS 3 Xrotation Yrotation Zrotation
										JOINT RightForeArm
										{
											OFFSET -29.972300 0.000000 0.000000
											CHANNELS 3 Xrotation Yrotation Zrotation
											JOINT RightHand
											{
												OFFSET -26.026505 0.000000 0.000000
												CHANNELS 3 Xrotation Yrotation Zrotation
												End Site
												{
													OFFSET 0 0 0
												}
											}
										}
									}
								}
							}
						}
					}
				}
			}
		}
	}
}
MOTION
Frames: 9
Frame Time: 0.03333333
1.286409 74.688995 -1.249714 0.000000 0.000000 0.000000 -8.071666 -48.208998 -3.621406 -28.414646 3.910120 26.277826 54.137770 -1.024731 3.471575 -13.447434 -7.188265 -14.286305 -5.330111 0.707209 2.394448 0.000000 0.000000 0.000000 -8.804905 -46.573574 -3.028815 -14.641231 -10.376037 -37.738892 56.077096 5.551419 0.912073 -27.355548 -14.052315 24.044315 0.777132 0.464220 -0.500303 0.000000 0.000000 0.000000 -8.570491 -46.970904 -4.232437 12.013441 8.100938 -2.439502 0.882452 1.261934 -0.506298 0.065570 -0.770673 1.294405 0.000000 0.000000 0.000000 0.775490 1.878674 -0.524370 1.852117 13.947140 5.323830 6.195768 16.845745 -2.688802 0.000000 0.000000 0.000000 2.502556 1.226119 0.092533 0.661761 3.546738 -6.394914 -3.481027 -3.547526 -4.240621 -50.360142 5.075401 -45.133767 175.162674 -72.199512 177.087312 0.000000 0.000000 0.000000 2.078539 1.441738 -0.497894 4.182392 11.696320 -5.292964 -1.787513 -5.511345 -1.929243 -51.571046 20.259543 85.980279 179.796698 73.312778 -177.728243 0.000000 0.000000 0.000000 
1.605095 74.082947 -0.442375 0.000000 0.000000 0.000000 -8.262859 -49.009145 -3.503952 -29.713819 3.130000 26.509369 56.663734 -1.157507 3.111258 -13.324926 -6.917548 -15.018652 -7.459536 0.502878 2.563101 0.000000 0.000000 0.000000 -9.223744 -47.625068 -2.997679 -15.228228 -10.397539 -38.771794 57.955432 6.782267 1.096276 -28.318454 -14.290775 24.199297 1.637266 0.373020 -0.321779 0.000000 0.000000 0.000000 -8.326540 -47.429185 -3.929677 12.497349 8.319692 -2.576905 1.069519 1.143912 -0.469657 0.424761 -0.741722 1.545811 0.000000 0.000000 0.000000 0.837456 1.765153 -0.508728 1.807767 13.933609 5.356536 6.299092 16.905707 -2.548915 0.000000 0.000000 0.000000 2.410846 1.175473 0.151402 0.550173 3.359976 -6.790644 -1.265453 -5.512149 -3.538519 -52.277254 4.999679 -45.907747 171.590198 -72.185332 173.196249 0.000000 0.000000 0.000000 2.032728 1.357434 -0.464352 4.280459 12.285015 -5.212602 -1.369466 -5.868615 -1.236024 -52.736184 22.241746 86.299351 -179.539350 73.566547 -178.251955 0.000000 0.000000 0.000000 
1.807066 72.699142 0.587883 0.000000 0.000000 0.000000 -8.191013 -50.150261 -2.989942 -32.221257 1.464417 27.734106 62.102723 -3.385649 1.843037 -13.672021 -8.425692 -16.875494 -10.872825 -0.284232 4.367277 0.000000 0.000000 0.000000 -9.239021 -48.804038 -2.590550 -15.889197 -9.103674 -40.457123 60.021428 8.370891 0.381542 -28.691337 -14.733655 24.855238 0.767787 0.229786 0.459528 0.000000 0.000000 0.000000 -8.103114 -48.611126 -3.433576 13.617959 8.773017 -2.602031 1.019863 1.028989 -0.591081 0.612358 -0.742939 1.362633 0.000000 0.000000 0.000000 0.561103 1.614173 -0.647385 1.343306 14.034235 5.507469 7.052303 17.126916 -2.136740 0.000000 0.000000 0.000000 2.180679 1.103997 0.045622 0.429646 3.238533 -7.510699 0.433685 -6.319337 -2.501902 -52.820301 4.639143 -46.395330 166.816866 -72.461586 168.170199 0.000000 0.000000 0.000000 1.624117 1.245963 -0.542510 4.320825 12.909627 -4.928181 -1.493841 -5.309344 -0.926273 -53.626561 23.233696 85.876344 -179.032249 74.281709 -179.273450 0.000000 0.000000 0.000000 
1.994521 70.666199 1.764650 0.000000 0.000000 0.000000 -7.926015 -51.527914 -2.238590 -35.698189 -0.861277 29.685191 69.204365 -7.408143 0.186759 -14.570407 -11.041843 -19.246775 -13.391839 -1.433674 6.833134 0.000000 0.000000 0.000000 -8.778777 -49.949324 -1.797109 -16.740485 -6.744650 -42.729472 61.849480 10.051525 -0.993457 -28.686111 -15.141392 25.619760 -1.032454 0.025650 1.523719 0.000000 0.000000 0.000000 -8.022094 -50.540811 -2.954799 15.172492 9.360195 -2.473923 0.755867 0.985752 -0.854558 0.663554 -0.211520 0.962551 0.000000 0.000000 0.000000 -0.020961 1.530511 -0.890499 0.475258 14.226549 5.685674 8.124740 17.745511 -1.729941 0.000000 0.000000 0.000000 1.743401 1.061512 -0.189627 0.357683 3.440593 -8.272719 1.636235 -5.696470 -1.296896 -51.313828 5.307591 -45.891915 163.914950 -71.964827 165.114714 0.000000 0.000000 0.000000 0.875548 1.170441 -0.748890 4.280234 13.440793 -4.652987 -1.724128 -3.966235 -0.878130 -54.257841 22.948252 84.963558 -177.765604 75.155112 178.379884 0.000000 0.000000 0.000000 
2.368444 68.134178 3.277058 0.000000 0.000000 0.000000 -7.381128 -53.163208 -1.256205 -39.275350 -3.522931 31.901809 75.728404 -11.642816 -1.499328 -16.548742 -13.514478 -20.314939 -14.101973 -2.540218 8.736469 0.000000 0.000000 0.000000 -8.021059 -51.016698 -0.778061 -18.088537 -3.678906 -45.588709 63.204576 11.614952 -2.526002 -28.425811 -15.199409 26.152219 -1.899734 -0.117406 2.348210 0.000000 0.000000 0.000000 -8.043873 -52.873423 -2.526752 16.922101 9.881939 -2.156599 0.293303 1.032349 -1.221183 0.692051 0.253302 0.519863 0.000000 0.000000 0.000000 -0.769007 1.558520 -1.187878 -0.570660 14.572034 5.744033 9.078594 18.998707 -1.627158 0.000000 0.000000 0.000000 1.110973 1.089252 -0.509689 0.334546 4.059043 -8.914890 2.267456 -4.188250 0.331317 -47.768383 7.981421 -44.161189 165.994292 -69.445805 167.067329 0.000000 0.000000 0.000000 -0.097796 1.146268 -1.073495 4.108451 13.674371 -4.687809 -2.001729 -2.757092 -0.816072 -54.878989 22.361435 84.267145 -175.415883 75.982180 174.601260 0.000000 0.000000 0.000000 
3.070034 65.435532 5.424337 0.000000 0.000000 0.000000 -6.705498 -54.928023 -0.170446 -42.772315 -6.729501 34.526476 80.735513 -15.572589 -2.432721 -17.128212 -15.192868 -21.445049 -13.845391 -3.141589 9.335582 0.000000 0.000000 0.000000 -7.043330 -52.387175 0.409055 -20.344111 -0.489762 -49.243810 64.015627 13.042307 -3.595731 -27.442141 -14.682400 26.615403 -1.488762 -0.076336 2.468181 0.000000 0.000000 0.000000 -8.015598 -55.066682 -2.111168 18.492054 10.123962 -1.703600 -0.271287 1.146261 -1.579198 0.433890 0.222912 0.400602 0.000000 0.000000 0.000000 -1.480004 1.677114 -1.444313 -1.557526 15.100394 5.524219 9.674355 21.105635 -2.131460 0.000000 0.000000 0.000000 0.391425 1.186763 -0.822529 0.366970 5.119822 -9.290216 2.524752 -2.612115 2.061989 -43.968574 12.215454 -41.797845 171.501897 -64.676666 172.309308 0.000000 0.000000 0.000000 -1.067809 1.179833 -1.434112 3.874774 13.414918 -5.257425 -2.058760 -2.194270 -0.533587 -55.695193 23.055396 84.832664 -171.835511 76.847633 169.704588 0.000000 0.000000 0.000000 
4.098337 62.954643 8.337524 0.000000 0.000000 0.000000 -6.013901 -57.045764 0.814945 -45.723383 -10.300044 37.509818 83.040593 -18.672865 -2.462868 -14.006216 -15.920666 -23.964880 -13.926857 -3.065186 8.156860 0.000000 0.000000 0.000000 -6.314159 -54.196626 1.378003 -23.167006 2.349845 -53.740738 63.677253 14.603969 -3.940743 -25.246435 -13.366945 27.838217 -0.945387 0.113849 1.621833 0.000000 0.000000 0.000000 -7.936137 -57.013795 -1.817206 19.614556 9.698716 -1.278217 -0.828022 1.231311 -1.793831 0.161949 0.008188 0.817936 0.000000 0.000000 0.000000 -1.906742 1.759891 -1.549722 -2.342806 15.863941 5.044379 9.758462 23.985538 -3.310582 0.000000 0.000000 0.000000 -0.255853 1.267868 -1.044806 0.362558 6.454816 -9.411134 2.409010 -1.804552 3.372675 -41.497494 16.746881 -39.573150 176.656245 -59.435746 177.177853 0.000000 0.000000 0.000000 -1.798010 1.191181 -1.666128 3.531995 12.617172 -6.230545 -1.588929 -2.539433 0.373133 -56.939937 26.460573 86.609346 -167.933779 77.412872 165.070960 0.000000 0.000000 0.000000 
5.312285 60.849869 11.831138 0.000000 0.000000 0.000000 -5.405875 -59.236038 1.528751 -47.030804 -12.997803 40.808635 80.984665 -19.666743 -2.469934 -8.566071 -15.162861 -26.304578 -14.625414 -2.375707 5.311190 0.000000 0.000000 0.000000 -6.032490 -56.217033 1.855046 -25.316834 4.429492 -58.647453 61.613907 16.324369 -3.631823 -21.865927 -11.029691 29.863773 -1.115269 0.439115 0.113323 0.000000 0.000000 0.000000 -7.869536 -58.500454 -1.769697 20.084188 8.395461 -1.056139 -1.243891 1.152200 -1.720583 0.002968 -0.677567 1.264264 0.000000 0.000000 0.000000 -1.946054 1.652922 -1.427492 -2.752545 16.860926 4.380635 9.246182 27.497853 -5.039378 0.000000 0.000000 0.000000 -0.622409 1.228718 -1.065843 0.342178 7.884178 -9.342570 2.172563 -1.775939 3.992038 -41.356215 19.597954 -37.808932 -179.811710 -57.641476 -179.651611 0.000000 0.000000 0.000000 -2.072572 1.080617 -1.653031 3.047377 11.337282 -7.244816 -1.232285 -3.224914 1.608848 -58.721185 33.068402 89.365922 -165.520660 77.438861 162.637910 0.000000 0.000000 0.000000 
6.364099 59.150246 15.781979 0.000000 0.000000 0.000000 -5.018200 -61.068059 1.611088 -46.634438 -14.351658 44.111909 74.368473 -18.214634 -2.478982 -2.971067 -12.751931 -27.761951 -14.152495 -1.252985 1.560822 0.000000 0.000000 0.000000 -6.149987 -58.192973 1.656074 -25.550623 5.258126 -63.190335 57.243535 17.887738 -2.752856 -17.769821 -7.967198 31.574636 -2.352048 0.850653 -1.197251 0.000000 0.000000 0.000000 -7.671124 -59.323943 -1.999609 19.695870 6.070286 -1.144691 -1.333407 0.870637 -1.273746 0.601587 -1.181213 1.625532 0.000000 0.000000 0.000000 -1.664750 1.296242 -1.020182 -2.844964 17.931482 3.674252 8.209847 31.251155 -7.023812 0.000000 0.000000 0.000000 -0.566954 0.961792 -0.804085 0.258080 8.936672 -8.977259 2.394718 -2.123826 4.267302 -43.926736 19.601079 -36.171111 -177.340357 -62.992451 -177.530591 0.000000 0.000000 0.000000 -1.763217 0.798672 -1.302938 2.480228 9.733814 -8.171170 -1.547718 -3.618837 2.604256 -59.866642 42.076469 91.761351 -165.208834 77.040231 162.871366 0.000000 0.000000 0.000000 
